<?xml version="1.0" encoding="utf-8"?>
<!-- Generator: Adobe Illustrator 19.0.0, SVG Export Plug-In . SVG Version: 6.00 Build 0)  -->
<!DOCTYPE svg PUBLIC "-//W3C//DTD SVG 1.1//EN" "http://www.w3.org/Graphics/SVG/1.1/DTD/svg11.dtd">
<svg version="1.1" id="Layer_1" xmlns="http://www.w3.org/2000/svg" xmlns:xlink="http://www.w3.org/1999/xlink" x="0px" y="0px"
	 viewBox="0 0 72 72" style="enable-background:new 0 0 72 72;" xml:space="preserve">
<style type="text/css">
	.st0{fill:#004A80;}
</style>
<g id="XMLID_2_">
	<path id="XMLID_27_" class="st0" d="M39.8,43.2c-0.3,0.1-0.6,0.2-0.9,0.4c-1-1.7-2-3.4-3.1-5.2c-3.6,2.1-7.1,4.2-10.6,6.3
		c-0.2-0.3-0.4-0.5-0.6-0.8c-2.8,1.6-5.6,3.3-8.4,5c-0.3-0.5-0.5-0.9-0.8-1.4c2.8-1.7,5.6-3.3,8.4-5c-0.1-0.3-0.2-0.6-0.3-1
		c3.4-2,6.8-4,10.3-6.1c-0.8-1.4-1.6-2.7-2.4-4.1c-0.8,1.2-0.4,1.6-5.6,3.2c-0.3-0.6-0.7-1.1-0.9-1.6c0.6-1.9,2.3-2.4,3.7-3.3
		c0.3-0.2,0.7-0.1,1.1-0.1c0.2,0,0.5-0.1,0.6-0.2c0.9-0.5,2-0.8,2.5-1.6c1.2-1.7,3.1-2.3,4.7-3.4c0.2-0.1,0.3-0.4,0.4-0.7
		c0.6-1.2,1.9-1.8,3.1-1.4c1.2,0.4,2,1.6,1.8,2.8c-0.2,1.3-1.3,2.2-2.6,2.3c-0.7,0-1.4,0.3-2,0.7c-0.9,0.4-1.6,1-2.5,1.4
		c-0.3,0.2-0.7,0.2-1.3,0.3c0.7,1.2,1.5,2.5,2.3,3.9c3.4-2,6.7-3.9,10.1-5.9c0.2,0.3,0.4,0.5,0.7,0.8c2.8-1.6,5.6-3.3,8.4-4.9
		c0.3,0.5,0.5,0.9,0.8,1.4c-2.9,1.7-5.6,3.3-8.4,5c0.1,0.3,0.2,0.6,0.4,1c-3.4,2-6.9,4.1-10.4,6.1c1,1.8,2,3.5,3,5.2
		c-0.3,0.2-0.5,0.4-0.8,0.6c1,1.7,1.9,3.3,2.9,4.9c0.3,0.4,0.5,0.8-0.3,1C41.9,46.9,40.8,45.1,39.8,43.2z"/>
	<path id="XMLID_26_" class="st0" d="M43.4,9c0.6-0.3,1.1-0.6,1.7-1c2.8,4.9,5.6,9.7,8.5,14.6c-0.6,0.3-1.1,0.6-1.7,1
		C49,18.8,46.2,14,43.4,9z"/>
	<path id="XMLID_25_" class="st0" d="M54.5,28.1c0.6-0.4,1.1-0.7,1.7-1c2.8,4.9,5.7,9.7,8.5,14.6c-0.5,0.3-1,0.6-1.7,1
		C60.2,37.8,57.4,33,54.5,28.1z"/>
	<path id="XMLID_24_" class="st0" d="M28.7,63c-0.6,0.4-1.1,0.6-1.7,1c-2.8-4.9-5.6-9.7-8.5-14.6c0.6-0.3,1.1-0.6,1.7-1
		C23,53.3,25.8,58.1,28.7,63z"/>
	<path id="XMLID_23_" class="st0" d="M1.8,33.5c0.6-0.4,1.1-0.7,1.7-1c2.8,4.9,5.7,9.7,8.5,14.6c-0.6,0.3-1.1,0.6-1.7,1
		C7.5,43.3,4.7,38.5,1.8,33.5z"/>
	<path id="XMLID_22_" class="st0" d="M7.3,30.3c0.6-0.3,1.1-0.6,1.7-1c2.8,4.9,5.7,9.7,8.5,14.6c-0.6,0.3-1.1,0.6-1.7,1
		C13,40,10.2,35.2,7.3,30.3z"/>
	<path id="XMLID_21_" class="st0" d="M68.5,39.5c-2.8-4.9-5.7-9.7-8.5-14.6c0.6-0.3,1.1-0.6,1.7-1c2.8,4.9,5.7,9.7,8.5,14.6
		C69.6,38.8,69.1,39.1,68.5,39.5z"/>
	<path id="XMLID_20_" class="st0" d="M15.7,51c0.6-0.3,1.1-0.6,1.7-1c2.8,4.9,5.7,9.7,8.5,14.6c-0.6,0.3-1.1,0.6-1.7,1
		C21.4,60.7,18.6,55.9,15.7,51z"/>
	<path id="XMLID_19_" class="st0" d="M31.4,61.4c-0.6,0.4-1.1,0.6-1.7,1c-2.8-4.8-5.7-9.7-8.5-14.6c0.6-0.3,1-0.6,1.7-1
		C25.7,51.6,28.5,56.4,31.4,61.4z"/>
	<path id="XMLID_18_" class="st0" d="M23.2,66.2c-0.6,0.3-1.1,0.6-1.7,1c-2.8-4.9-5.7-9.7-8.5-14.6c0.6-0.4,1.1-0.6,1.7-1
		C17.5,56.5,20.3,61.3,23.2,66.2z"/>
	<path id="XMLID_17_" class="st0" d="M50.5,4.8c2.9,4.9,5.7,9.7,8.5,14.6c-0.6,0.4-1.1,0.6-1.7,1c-2.8-4.8-5.6-9.7-8.5-14.6
		C49.4,5.5,49.9,5.2,50.5,4.8z"/>
	<path id="XMLID_16_" class="st0" d="M47.8,6.4c2.8,4.9,5.7,9.7,8.5,14.6c-0.5,0.3-1,0.6-1.7,1c-2.8-4.9-5.6-9.7-8.5-14.6
		C46.7,7.1,47.2,6.8,47.8,6.4z"/>
	<path id="XMLID_15_" class="st0" d="M40.6,10.7c0.6-0.3,1-0.6,1.7-1c2.8,4.9,5.7,9.7,8.5,14.6c-0.6,0.3-1.1,0.6-1.7,1
		C46.3,20.4,43.5,15.6,40.6,10.7z"/>
	<path id="XMLID_14_" class="st0" d="M61.9,43.3c-0.6,0.3-1,0.6-1.7,1c-2.9-4.9-5.7-9.7-8.5-14.6c0.5-0.3,1-0.6,1.7-1
		C56.3,33.6,59.1,38.4,61.9,43.3z"/>
	<path id="XMLID_13_" class="st0" d="M67.4,40.1c-0.6,0.3-1.1,0.6-1.7,1c-2.8-4.9-5.7-9.7-8.5-14.6c0.6-0.3,1.1-0.6,1.7-1
		C61.8,30.4,64.6,35.2,67.4,40.1z"/>
	<path id="XMLID_12_" class="st0" d="M4.6,31.9c0.7-0.4,1.1-0.6,1.7-1c2.8,4.9,5.7,9.7,8.5,14.6c-0.6,0.3-1,0.6-1.7,1
		C10.2,41.6,7.4,36.8,4.6,31.9z"/>
	<path id="XMLID_11_" class="st0" d="M20.3,42.3c-0.5,0.3-1,0.6-1.7,1c-2.8-4.9-5.7-9.7-8.5-14.6c0.6-0.3,1-0.6,1.7-1
		C14.6,32.6,17.4,37.4,20.3,42.3z"/>
	<path id="XMLID_10_" class="st0" d="M37.2,53.7c-0.5-0.8-0.9-1.6-1.5-2.5c1.9-1.1,3.8-2.2,5.8-3.4c0.5,0.8,0.9,1.6,1.5,2.5
		C41,51.4,39.2,52.5,37.2,53.7z"/>
	<path id="XMLID_9_" class="st0" d="M49.3,43.2c0.5,0.9,1,1.6,1.5,2.5c-1.9,1.1-3.8,2.3-5.8,3.4c-0.5-0.9-1-1.6-1.5-2.5
		C45.5,45.4,47.4,44.3,49.3,43.2z"/>
	<path id="XMLID_8_" class="st0" d="M35.7,47.8c-0.5,0.3-0.8,0.4-1.2,0.7c-1.1-2-2.3-3.9-3.5-5.9c0.4-0.2,0.7-0.5,1.2-0.7
		C33.4,43.8,34.5,45.7,35.7,47.8z"/>
	<path id="XMLID_7_" class="st0" d="M47.4,40.9c-0.5,0.3-0.8,0.5-1.2,0.7c-1.2-2-2.3-3.9-3.5-5.9c0.4-0.2,0.7-0.5,1.2-0.7
		C45,36.9,46.2,38.8,47.4,40.9z"/>
	<path id="XMLID_6_" class="st0" d="M28.9,43.7c0.4-0.3,0.8-0.5,1.2-0.7c1.2,2,2.3,3.9,3.5,5.9c-0.4,0.2-0.7,0.5-1.2,0.7
		C31.3,47.7,30.1,45.7,28.9,43.7z"/>
	<path id="XMLID_5_" class="st0" d="M44.7,34.4c0.5-0.3,0.8-0.5,1.2-0.7c1.2,2,2.3,3.9,3.5,6c-0.4,0.2-0.8,0.4-1.2,0.7
		C47,38.4,45.9,36.5,44.7,34.4z"/>
	<path id="XMLID_4_" class="st0" d="M45.3,42.1c-0.4,0.3-0.8,0.5-1.2,0.7c-1.2-2-2.3-3.9-3.5-6c0.4-0.2,0.8-0.5,1.2-0.7
		C43,38.1,44.1,40,45.3,42.1z"/>
	<path id="XMLID_3_" class="st0" d="M33,41.3c0.4-0.3,0.8-0.5,1.2-0.7c1.2,2,2.3,3.9,3.5,5.9c-0.4,0.2-0.7,0.5-1.2,0.7
		C35.3,45.3,34.2,43.4,33,41.3z"/>
</g>
</svg>
