<?xml version="1.0" encoding="utf-8"?>
<!-- Generator: Adobe Illustrator 19.0.0, SVG Export Plug-In . SVG Version: 6.00 Build 0)  -->
<!DOCTYPE svg PUBLIC "-//W3C//DTD SVG 1.1//EN" "http://www.w3.org/Graphics/SVG/1.1/DTD/svg11.dtd">
<svg version="1.1" xmlns="http://www.w3.org/2000/svg" xmlns:xlink="http://www.w3.org/1999/xlink" x="0px" y="0px"
	 viewBox="-247 169 144 144" style="enable-background:new -247 169 144 144;" xml:space="preserve">
<style type="text/css">
	.st0{fill:#FFFFFF;}
	.st1{fill:#01193B;}
	.st2{fill:#069CF9;}
	.st3{fill:#E32E3D;stroke:#FFFFFF;stroke-width:0.5;stroke-miterlimit:10;}
	.st4{font-family:'OCRAStd';}
	.st5{font-size:25.9123px;}
	.st6{fill:url(#XMLID_6_);}
</style>
<g id="Layer_1">
	<path id="XMLID_92_" class="st0" d="M-121.9,178.8h-105.3c-4.3,0-8,3.9-8,8.1v63.5c0,0.2,0.1,0.3,0.2,0.5c0.7,32.7,27.5,59,60.4,59
		s59.6-26.3,60.4-59c0-0.2,0-0.3,0-0.5v-63.5C-114.2,182.7-117.6,178.8-121.9,178.8z"/>
	<path id="XMLID_3_" class="st1" d="M-122.6,179.6h-103.9c-4.2,0-7.9,3.8-7.9,8v62.7c0,0.2,0.1,0.3,0.2,0.5
		c0.7,32.3,27.1,58.2,59.6,58.2s58.8-26,59.6-58.2c0-0.2,0-0.3,0-0.5v-62.7C-115,183.5-118.3,179.6-122.6,179.6z"/>
	<path id="XMLID_1_" class="st2" d="M-125.1,182.7h-99c-4,0-7.5,3.7-7.5,7.6V250c0,0.2,0.1,0.3,0.2,0.5
		c0.7,30.7,25.8,55.4,56.8,55.4s56-24.7,56.8-55.4c0-0.2,0-0.3,0-0.5v-59.7C-117.8,186.4-121,182.7-125.1,182.7z"/>
	<path id="XMLID_4_" class="st3" d="M-127.1,185.1h-95.1c-3.8,0-7,3.6-7,7.4v57.3c0,0.2,0,0.3,0,0.5c0.7,29.5,24.8,53.2,54.5,53.2
		s53.8-23.7,54.5-53.2c0-0.1,0-0.3,0-0.5v-57.3C-120.2,188.7-123.3,185.1-127.1,185.1z"/>
	<path id="XMLID_90_" class="st1" d="M-171.7,251.8c-0.3,0.1-0.6,0.2-0.9,0.4c-1-1.7-2-3.4-3.1-5.2c-3.6,2.1-7.1,4.2-10.6,6.3
		c-0.2-0.3-0.4-0.5-0.6-0.8c-2.8,1.6-5.6,3.3-8.4,5c-0.3-0.5-0.5-0.9-0.8-1.4c2.8-1.7,5.6-3.3,8.4-5c-0.1-0.3-0.2-0.6-0.3-1
		c3.4-2,6.8-4,10.3-6.1c-0.8-1.4-1.6-2.7-2.4-4.1c-0.8,1.2-0.4,1.6-5.6,3.2c-0.3-0.6-0.7-1.1-0.9-1.6c0.6-1.9,2.3-2.4,3.7-3.3
		c0.3-0.2,0.7-0.1,1.1-0.1c0.2,0,0.5-0.1,0.6-0.2c0.9-0.5,2-0.8,2.5-1.6c1.2-1.7,3.1-2.3,4.7-3.4c0.2-0.1,0.3-0.4,0.4-0.7
		c0.6-1.2,1.9-1.8,3.1-1.4c1.2,0.4,2,1.6,1.8,2.8c-0.2,1.3-1.3,2.2-2.6,2.3c-0.7,0-1.4,0.3-2,0.7c-0.9,0.4-1.6,1-2.5,1.4
		c-0.3,0.2-0.7,0.2-1.3,0.3c0.7,1.2,1.5,2.5,2.3,3.9c3.4-2,6.7-3.9,10.1-5.9c0.2,0.3,0.4,0.5,0.7,0.8c2.8-1.6,5.6-3.3,8.4-4.9
		c0.3,0.5,0.5,0.9,0.8,1.4c-2.9,1.7-5.6,3.3-8.4,5c0.1,0.3,0.2,0.6,0.4,1c-3.4,2-6.9,4.1-10.4,6.1c1,1.8,2,3.5,3,5.2
		c-0.3,0.2-0.5,0.4-0.8,0.6c1,1.7,1.9,3.3,2.9,4.9c0.3,0.4,0.5,0.8-0.3,1C-169.5,255.5-170.6,253.7-171.7,251.8z"/>
	<path id="XMLID_87_" class="st2" d="M-182.8,271.6c-0.6,0.4-1.1,0.6-1.7,1c-2.8-4.9-5.6-9.7-8.5-14.6c0.6-0.3,1.1-0.6,1.7-1
		C-188.5,261.9-185.7,266.7-182.8,271.6z"/>
	<path id="XMLID_86_" class="st1" d="M-209.6,242.2c0.6-0.4,1.1-0.7,1.7-1c2.8,4.9,5.7,9.7,8.5,14.6c-0.6,0.3-1.1,0.6-1.7,1
		C-204,251.9-206.8,247.1-209.6,242.2z"/>
	<path id="XMLID_85_" class="st1" d="M-204.1,238.9c0.6-0.3,1.1-0.6,1.7-1c2.8,4.9,5.7,9.7,8.5,14.6c-0.6,0.3-1.1,0.6-1.7,1
		C-198.5,248.7-201.3,243.8-204.1,238.9z"/>
	<path id="XMLID_83_" class="st2" d="M-195.7,259.6c0.6-0.3,1.1-0.6,1.7-1c2.8,4.9,5.7,9.7,8.5,14.6c-0.6,0.3-1.1,0.6-1.7,1
		C-190.1,269.4-192.9,264.5-195.7,259.6z"/>
	<path id="XMLID_82_" class="st2" d="M-180,270c-0.6,0.4-1.1,0.6-1.7,1c-2.8-4.8-5.7-9.7-8.5-14.6c0.6-0.3,1-0.6,1.7-1
		C-185.7,260.2-182.9,265.1-180,270z"/>
	<path id="XMLID_81_" class="st2" d="M-188.3,274.9c-0.6,0.3-1.1,0.6-1.7,1c-2.8-4.9-5.7-9.7-8.5-14.6c0.6-0.4,1.1-0.6,1.7-1
		C-194,265.1-191.2,270-188.3,274.9z"/>
	<path id="XMLID_75_" class="st1" d="M-206.9,240.5c0.7-0.4,1.1-0.6,1.7-1c2.8,4.9,5.7,9.7,8.5,14.6c-0.6,0.3-1,0.6-1.7,1
		C-201.2,250.3-204,245.4-206.9,240.5z"/>
	<path id="XMLID_74_" class="st1" d="M-191.2,250.9c-0.5,0.3-1,0.6-1.7,1c-2.8-4.9-5.7-9.7-8.5-14.6c0.6-0.3,1-0.6,1.7-1
		C-196.9,241.2-194,246-191.2,250.9z"/>
	<polygon id="XMLID_64_" class="st0" points="-175.3,284 -173.4,287.7 -169.3,288.3 -172.3,291.2 -171.6,295.3 -175.3,293.3 
		-178.9,295.3 -178.2,291.2 -181.2,288.3 -177.1,287.7 	"/>
	<polygon id="XMLID_63_" class="st0" points="-146.8,273.6 -144.9,277.3 -140.8,277.9 -143.8,280.8 -143.1,284.9 -146.8,283 
		-150.4,284.9 -149.7,280.8 -152.7,277.9 -148.6,277.3 	"/>
	<polygon id="XMLID_62_" class="st0" points="-204.6,273.6 -202.8,277.3 -198.7,277.9 -201.7,280.8 -201,284.9 -204.6,283 
		-208.3,284.9 -207.6,280.8 -210.6,277.9 -206.5,277.3 	"/>
	<text id="XMLID_61_" transform="matrix(1 0 0 1 -220.399 211.2093)" class="st0 st4 st5">ISS-T</text>
	<path class="st0" d="M-149.7,255.3c-1.6,0-3,1.1-3.4,2.5c-0.2,0-0.4,0-0.7,0c-2.5-0.2-6.2-0.4-10.6-0.7c-4.4-0.3-9.5-0.8-15-1.4
		c-2.7-0.3-5.5-0.7-8.4-1.1c-2.9-0.5-5.7-1-8.6-1.6c-1.4-0.3-2.8-0.7-4.2-1.1c-1.3-0.4-2.7-0.9-4-1.5c-0.6-0.3-1.2-0.6-1.8-1
		c-0.5-0.4-1.1-0.9-1.3-1.4c0-0.1-0.1-0.2-0.1-0.4v-0.1v-0.1v-0.2c0-0.2,0-0.3,0-0.5c0-0.2,0-0.4,0.1-0.5c0.2-0.6,0.6-1.2,1.1-1.6
		c1-0.9,2.2-1.5,3.4-2c1.2-0.4,2.5-0.8,3.7-1.1c2.5-0.6,4.8-0.9,7-1.2c2.2-0.2,4.2-0.4,6-0.5s3.3-0.2,4.6-0.2c2.5,0,4,0,4,0
		s-1.5-0.1-4.1-0.3c-1.2,0-2.8,0-4.6,0.1c-1.8,0.1-3.8,0.2-6,0.4c-2.2,0.3-4.6,0.6-7.1,1.1c-1.3,0.3-2.5,0.6-3.8,1.1
		c-1.2,0.5-2.5,1-3.6,2c-0.5,0.5-1,1.1-1.3,1.8c-0.1,0.2-0.2,0.4-0.2,0.6c-0.1,0.2-0.1,0.4-0.1,0.6v0.3v0.1v0.1v0.1
		c0,0.2,0.1,0.4,0.2,0.6c0.1,0.2,0.2,0.3,0.3,0.5c0.2,0.2,0.3,0.4,0.4,0.5c0.3,0.3,0.6,0.6,0.9,0.8c0.6,0.4,1.2,0.8,1.9,1.1
		c1.3,0.6,2.7,1.2,4.1,1.6c1.4,0.5,2.9,0.8,4.3,1.2c2.8,0.7,5.7,1.3,8.6,1.8c2.8,0.5,5.7,0.9,8.4,1.3c5.5,0.7,10.6,1.3,15,1.7
		c4.4,0.4,8,0.7,10.6,0.9c0.3,0,0.5,0,0.8,0.1c0.4,1.6,1.8,2.8,3.5,2.8c2,0,3.6-1.6,3.6-3.6C-146.1,256.9-147.7,255.3-149.7,255.3z"
		/>
	<path id="XMLID_2_" class="st2" d="M-171.7,251.8c-0.3,0.1-0.6,0.2-0.9,0.4c-1-1.7-2-3.4-3.1-5.2c-3.6,2.1-7.1,4.2-10.6,6.3
		c-0.2-0.3-0.4-0.5-0.6-0.8c-2.8,1.6-5.6,3.3-8.4,5c-0.3-0.5-0.5-0.9-0.8-1.4c2.8-1.7,5.6-3.3,8.4-5c-0.1-0.3-0.2-0.6-0.3-1
		c3.4-2,6.8-4,10.3-6.1c-0.8-1.4-1.6-2.7-2.4-4.1c-0.8,1.2-0.4,1.6-5.6,3.2c-0.3-0.6-0.7-1.1-0.9-1.6c0.6-1.9,2.3-2.4,3.7-3.3
		c0.3-0.2,0.7-0.1,1.1-0.1c0.2,0,0.5-0.1,0.6-0.2c0.9-0.5,2-0.8,2.5-1.6c1.2-1.7,3.1-2.3,4.7-3.4c0.2-0.1,0.3-0.4,0.4-0.7
		c0.6-1.2,1.9-1.8,3.1-1.4c1.2,0.4,2,1.6,1.8,2.8c-0.2,1.3-1.3,2.2-2.6,2.3c-0.7,0-1.4,0.3-2,0.7c-0.9,0.4-1.6,1-2.5,1.4
		c-0.3,0.2-0.7,0.2-1.3,0.3c0.7,1.2,1.5,2.5,2.3,3.9c3.4-2,6.7-3.9,10.1-5.9c0.2,0.3,0.4,0.5,0.7,0.8c2.8-1.6,5.6-3.3,8.4-4.9
		c0.3,0.5,0.5,0.9,0.8,1.4c-2.9,1.7-5.6,3.3-8.4,5c0.1,0.3,0.2,0.6,0.4,1c-3.4,2-6.9,4.1-10.4,6.1c1,1.8,2,3.5,3,5.2
		c-0.3,0.2-0.5,0.4-0.8,0.6c1,1.7,1.9,3.3,2.9,4.9c0.3,0.4,0.5,0.8-0.3,1C-169.5,255.5-170.6,253.7-171.7,251.8z"/>
	<path id="XMLID_55_" class="st2" d="M-199.4,255.8c-0.5,0.3-1,0.6-1.7,1c-2.8-4.9-5.7-9.7-8.5-14.6c0.6-0.3,1-0.6,1.7-1
		C-205.1,246.1-202.3,250.9-199.4,255.8z"/>
	<path id="XMLID_57_" class="st2" d="M-196.7,254.1c-0.5,0.3-1,0.6-1.7,1c-2.8-4.9-5.7-9.7-8.5-14.6c0.6-0.3,1-0.6,1.7-1
		C-202.4,244.4-199.5,249.3-196.7,254.1z"/>
	<path id="XMLID_58_" class="st2" d="M-193.9,252.5c-0.5,0.3-1,0.6-1.7,1c-2.8-4.9-5.7-9.7-8.5-14.6c0.6-0.3,1-0.6,1.7-1
		C-199.6,242.8-196.8,247.6-193.9,252.5z"/>
	<path id="XMLID_59_" class="st2" d="M-191.2,250.9c-0.5,0.3-1,0.6-1.7,1c-2.8-4.9-5.7-9.7-8.5-14.6c0.6-0.3,1-0.6,1.7-1
		C-196.9,241.2-194,246-191.2,250.9z"/>
	<path id="XMLID_89_" class="st2" d="M-168.1,217.7c0.6-0.3,1.1-0.6,1.7-1c2.8,4.9,5.6,9.7,8.5,14.6c-0.6,0.3-1.1,0.6-1.7,1
		C-162.4,227.4-165.2,222.6-168.1,217.7z"/>
	<path id="XMLID_88_" class="st2" d="M-157,236.7c0.6-0.4,1.1-0.7,1.7-1c2.8,4.9,5.7,9.7,8.5,14.6c-0.5,0.3-1,0.6-1.7,1
		C-151.3,246.5-154.1,241.7-157,236.7z"/>
	<path id="XMLID_84_" class="st2" d="M-142.9,248.1c-2.8-4.9-5.7-9.7-8.5-14.6c0.6-0.3,1.1-0.6,1.7-1c2.8,4.9,5.7,9.7,8.5,14.6
		C-141.8,247.5-142.4,247.8-142.9,248.1z"/>
	<path id="XMLID_80_" class="st2" d="M-160.9,213.4c2.9,4.9,5.7,9.7,8.5,14.6c-0.6,0.4-1.1,0.6-1.7,1c-2.8-4.8-5.6-9.7-8.5-14.6
		C-162.1,214.1-161.6,213.8-160.9,213.4z"/>
	<path id="XMLID_79_" class="st2" d="M-163.7,215c2.8,4.9,5.7,9.7,8.5,14.6c-0.5,0.3-1,0.6-1.7,1c-2.8-4.9-5.6-9.7-8.5-14.6
		C-164.8,215.7-164.3,215.4-163.7,215z"/>
	<path id="XMLID_78_" class="st2" d="M-170.8,219.3c0.6-0.3,1-0.6,1.7-1c2.8,4.9,5.7,9.7,8.5,14.6c-0.6,0.3-1.1,0.6-1.7,1
		C-165.2,229-168,224.2-170.8,219.3z"/>
	<path id="XMLID_77_" class="st2" d="M-149.5,252c-0.6,0.3-1,0.6-1.7,1c-2.9-4.9-5.7-9.7-8.5-14.6c0.5-0.3,1-0.6,1.7-1
		C-155.2,242.2-152.4,247.1-149.5,252z"/>
	<path id="XMLID_76_" class="st2" d="M-144,248.7c-0.6,0.3-1.1,0.6-1.7,1c-2.8-4.9-5.7-9.7-8.5-14.6c0.6-0.3,1.1-0.6,1.7-1
		C-149.7,239-146.9,243.8-144,248.7z"/>
	<linearGradient id="XMLID_6_" gradientUnits="userSpaceOnUse" x1="-205.5286" y1="244.0883" x2="-145.3714" y2="244.0883">
		<stop  offset="0" style="stop-color:#FFFFFF;stop-opacity:0"/>
		<stop  offset="0.5" style="stop-color:#FFFFFF;stop-opacity:0.35"/>
		<stop  offset="1" style="stop-color:#FFFFFF;stop-opacity:0"/>
	</linearGradient>
	<path id="XMLID_91_" class="st6" d="M-149.2,184.9h-52.5c-2.1,0-3.9,3.6-3.9,7.4v57.3c0,0.2,0,0.3,0,0.5
		c0.4,29.5,13.7,53.2,30.1,53.2s29.7-23.7,30.1-53.2c0-0.1,0-0.3,0-0.5v-57.3C-145.4,188.5-147.1,184.9-149.2,184.9z"/>
</g>
<g id="Layer_2">
</g>
</svg>
