<?xml version="1.0" encoding="utf-8"?>
<!-- Generator: Adobe Illustrator 19.0.0, SVG Export Plug-In . SVG Version: 6.00 Build 0)  -->
<!DOCTYPE svg PUBLIC "-//W3C//DTD SVG 1.1//EN" "http://www.w3.org/Graphics/SVG/1.1/DTD/svg11.dtd">
<svg version="1.1" id="Layer_1" xmlns="http://www.w3.org/2000/svg" xmlns:xlink="http://www.w3.org/1999/xlink" x="0px" y="0px"
	 viewBox="-283 205 72 72" style="enable-background:new -283 205 72 72;" xml:space="preserve">
<style type="text/css">
	.st0{fill:#069CF9;}
	.st1{fill:none;stroke:#069CF9;stroke-width:2;stroke-miterlimit:10;}
</style>
<g>
	<g id="XMLID_2_">
		<path id="XMLID_27_" class="st0" d="M-244.5,245.8c-0.2,0.1-0.4,0.1-0.6,0.3c-0.7-1.1-1.3-2.3-2.1-3.5c-2.4,1.4-4.7,2.8-7.1,4.2
			c-0.1-0.2-0.3-0.3-0.4-0.5c-1.9,1.1-3.7,2.2-5.6,3.3c-0.2-0.3-0.3-0.6-0.5-0.9c1.9-1.1,3.7-2.2,5.6-3.3c-0.1-0.2-0.1-0.4-0.2-0.7
			c2.3-1.3,4.5-2.7,6.9-4.1c-0.5-0.9-1.1-1.8-1.6-2.7c-0.5,0.8-0.3,1.1-3.7,2.1c-0.2-0.4-0.5-0.7-0.6-1.1c0.4-1.3,1.5-1.6,2.5-2.2
			c0.2-0.1,0.5-0.1,0.7-0.1c0.1,0,0.3-0.1,0.4-0.1c0.6-0.3,1.3-0.5,1.7-1.1c0.8-1.1,2.1-1.5,3.1-2.3c0.1-0.1,0.2-0.3,0.3-0.5
			c0.4-0.8,1.3-1.2,2.1-0.9s1.3,1.1,1.2,1.9c-0.1,0.9-0.9,1.5-1.7,1.5c-0.5,0-0.9,0.2-1.3,0.5c-0.6,0.3-1.1,0.7-1.7,0.9
			c-0.2,0.1-0.5,0.1-0.9,0.2c0.5,0.8,1,1.7,1.5,2.6c2.3-1.3,4.5-2.6,6.7-3.9c0.1,0.2,0.3,0.3,0.5,0.5c1.9-1.1,3.7-2.2,5.6-3.3
			c0.2,0.3,0.3,0.6,0.5,0.9c-1.9,1.1-3.7,2.2-5.6,3.3c0.1,0.2,0.1,0.4,0.3,0.7c-2.3,1.3-4.6,2.7-6.9,4.1c0.7,1.2,1.3,2.3,2,3.5
			c-0.2,0.1-0.3,0.3-0.5,0.4c0.7,1.1,1.3,2.2,1.9,3.3c0.2,0.3,0.3,0.5-0.2,0.7C-243.1,248.3-243.8,247.1-244.5,245.8z"/>
		<path id="XMLID_26_" class="st0" d="M-242.1,223c0.4-0.2,0.7-0.4,1.1-0.7c1.9,3.3,3.7,6.5,5.7,9.7c-0.4,0.2-0.7,0.4-1.1,0.7
			C-238.3,229.5-240.2,226.3-242.1,223z"/>
		<path id="XMLID_25_" class="st0" d="M-234.7,235.7c0.4-0.3,0.7-0.5,1.1-0.7c1.9,3.3,3.8,6.5,5.7,9.7c-0.3,0.2-0.7,0.4-1.1,0.7
			C-230.8,242.2-232.7,239-234.7,235.7z"/>
		<path id="XMLID_24_" class="st0" d="M-251.9,259c-0.4,0.3-0.7,0.4-1.1,0.7c-1.9-3.3-3.7-6.5-5.7-9.7c0.4-0.2,0.7-0.4,1.1-0.7
			C-255.7,252.5-253.8,255.7-251.9,259z"/>
		<path id="XMLID_23_" class="st0" d="M-269.8,239.3c0.4-0.3,0.7-0.5,1.1-0.7c1.9,3.3,3.8,6.5,5.7,9.7c-0.4,0.2-0.7,0.4-1.1,0.7
			C-266,245.9-267.9,242.7-269.8,239.3z"/>
		<path id="XMLID_22_" class="st0" d="M-266.2,237.2c0.4-0.2,0.7-0.4,1.1-0.7c1.9,3.3,3.8,6.5,5.7,9.7c-0.4,0.2-0.7,0.4-1.1,0.7
			C-262.4,243.7-264.2,240.5-266.2,237.2z"/>
		<path id="XMLID_21_" class="st0" d="M-225.3,243.3c-1.9-3.3-3.8-6.5-5.7-9.7c0.4-0.2,0.7-0.4,1.1-0.7c1.9,3.3,3.8,6.5,5.7,9.7
			C-224.6,242.9-224.9,243.1-225.3,243.3z"/>
		<path id="XMLID_20_" class="st0" d="M-260.5,251c0.4-0.2,0.7-0.4,1.1-0.7c1.9,3.3,3.8,6.5,5.7,9.7c-0.4,0.2-0.7,0.4-1.1,0.7
			C-256.7,257.5-258.6,254.3-260.5,251z"/>
		<path id="XMLID_19_" class="st0" d="M-250.1,258c-0.4,0.3-0.7,0.4-1.1,0.7c-1.9-3.2-3.8-6.5-5.7-9.7c0.4-0.2,0.7-0.4,1.1-0.7
			C-253.9,251.4-252,254.6-250.1,258z"/>
		<path id="XMLID_18_" class="st0" d="M-255.5,261.2c-0.4,0.2-0.7,0.4-1.1,0.7c-1.9-3.3-3.8-6.5-5.7-9.7c0.4-0.3,0.7-0.4,1.1-0.7
			C-259.3,254.7-257.5,257.9-255.5,261.2z"/>
		<path id="XMLID_17_" class="st0" d="M-237.3,220.2c1.9,3.3,3.8,6.5,5.7,9.7c-0.4,0.3-0.7,0.4-1.1,0.7c-1.9-3.2-3.7-6.5-5.7-9.7
			C-238.1,220.6-237.7,220.4-237.3,220.2z"/>
		<path id="XMLID_16_" class="st0" d="M-239.1,221.2c1.9,3.3,3.8,6.5,5.7,9.7c-0.3,0.2-0.7,0.4-1.1,0.7c-1.9-3.3-3.7-6.5-5.7-9.7
			C-239.9,221.7-239.5,221.5-239.1,221.2z"/>
		<path id="XMLID_15_" class="st0" d="M-243.9,224.1c0.4-0.2,0.7-0.4,1.1-0.7c1.9,3.3,3.8,6.5,5.7,9.7c-0.4,0.2-0.7,0.4-1.1,0.7
			C-240.1,230.6-242,227.4-243.9,224.1z"/>
		<path id="XMLID_14_" class="st0" d="M-229.7,245.9c-0.4,0.2-0.7,0.4-1.1,0.7c-1.9-3.3-3.8-6.5-5.7-9.7c0.3-0.2,0.7-0.4,1.1-0.7
			C-233.5,239.4-231.6,242.6-229.7,245.9z"/>
		<path id="XMLID_13_" class="st0" d="M-226,243.7c-0.4,0.2-0.7,0.4-1.1,0.7c-1.9-3.3-3.8-6.5-5.7-9.7c0.4-0.2,0.7-0.4,1.1-0.7
			C-229.8,237.3-227.9,240.5-226,243.7z"/>
		<path id="XMLID_12_" class="st0" d="M-268,238.3c0.5-0.3,0.7-0.4,1.1-0.7c1.9,3.3,3.8,6.5,5.7,9.7c-0.4,0.2-0.7,0.4-1.1,0.7
			C-264.2,244.7-266.1,241.5-268,238.3z"/>
		<path id="XMLID_11_" class="st0" d="M-257.5,245.2c-0.3,0.2-0.7,0.4-1.1,0.7c-1.9-3.3-3.8-6.5-5.7-9.7c0.4-0.2,0.7-0.4,1.1-0.7
			C-261.3,238.7-259.4,241.9-257.5,245.2z"/>
	</g>
	<circle class="st1" cx="-247" cy="241" r="34.2"/>
	<circle class="st1" cx="-247" cy="241" r="28.1"/>
</g>
</svg>
