<?xml version="1.0" encoding="utf-8"?>
<!-- Generator: Adobe Illustrator 19.0.0, SVG Export Plug-In . SVG Version: 6.00 Build 0)  -->
<!DOCTYPE svg PUBLIC "-//W3C//DTD SVG 1.1//EN" "http://www.w3.org/Graphics/SVG/1.1/DTD/svg11.dtd">
<svg version="1.1" id="Layer_1" xmlns="http://www.w3.org/2000/svg" xmlns:xlink="http://www.w3.org/1999/xlink" x="0px" y="0px"
	 viewBox="-247 169 144 144" style="enable-background:new -247 169 144 144;" xml:space="preserve">
<style type="text/css">
	.st0{fill:#FFFFFF;}
	.st1{fill:#01193B;}
	.st2{fill:#069CF9;}
	.st3{fill:#E32E3D;stroke:#FFFFFF;stroke-width:0.5;stroke-miterlimit:10;}
	.st4{enable-background:new    ;}
	.st5{fill:url(#XMLID_6_);}
</style>
<g id="Layer_1_1_">
	<path id="XMLID_92_" class="st0" d="M-122.2,175.4h-105.3c-4.3,0-8,3.9-8,8.1v63.5c0,0.2,0.1,0.3,0.2,0.5c0.7,32.7,27.5,59,60.4,59
		s59.6-26.3,60.4-59c0-0.2,0-0.3,0-0.5v-63.5C-114.5,179.3-117.9,175.4-122.2,175.4z"/>
	<path id="XMLID_3_" class="st1" d="M-122.9,176.2h-103.9c-4.2,0-7.9,3.8-7.9,8v62.7c0,0.2,0.1,0.3,0.2,0.5
		c0.7,32.3,27.1,58.2,59.6,58.2s58.8-26,59.6-58.2c0-0.2,0-0.3,0-0.5v-62.7C-115.3,180.1-118.6,176.2-122.9,176.2z"/>
	<path id="XMLID_1_" class="st2" d="M-125.4,179.3h-99c-4,0-7.5,3.7-7.5,7.6v59.7c0,0.2,0.1,0.3,0.2,0.5
		c0.7,30.7,25.8,55.4,56.8,55.4s56-24.7,56.8-55.4c0-0.2,0-0.3,0-0.5v-59.7C-118.1,183-121.3,179.3-125.4,179.3z"/>
	<path id="XMLID_4_" class="st3" d="M-127.4,181.8h-95.1c-3.8,0-7,3.6-7,7.4v57.3c0,0.2,0,0.3,0,0.5c0.7,29.5,24.8,53.2,54.5,53.2
		s53.8-23.7,54.5-53.2c0-0.1,0-0.3,0-0.5v-57.3C-120.5,185.3-123.6,181.8-127.4,181.8z"/>
	<path id="XMLID_90_" class="st1" d="M-172,248.4c-0.3,0.1-0.6,0.2-0.9,0.4c-1-1.7-2-3.4-3.1-5.2c-3.6,2.1-7.1,4.2-10.6,6.3
		c-0.2-0.3-0.4-0.5-0.6-0.8c-2.8,1.6-5.6,3.3-8.4,5c-0.3-0.5-0.5-0.9-0.8-1.4c2.8-1.7,5.6-3.3,8.4-5c-0.1-0.3-0.2-0.6-0.3-1
		c3.4-2,6.8-4,10.3-6.1c-0.8-1.4-1.6-2.7-2.4-4.1c-0.8,1.2-0.4,1.6-5.6,3.2c-0.3-0.6-0.7-1.1-0.9-1.6c0.6-1.9,2.3-2.4,3.7-3.3
		c0.3-0.2,0.7-0.1,1.1-0.1c0.2,0,0.5-0.1,0.6-0.2c0.9-0.5,2-0.8,2.5-1.6c1.2-1.7,3.1-2.3,4.7-3.4c0.2-0.1,0.3-0.4,0.4-0.7
		c0.6-1.2,1.9-1.8,3.1-1.4c1.2,0.4,2,1.6,1.8,2.8c-0.2,1.3-1.3,2.2-2.6,2.3c-0.7,0-1.4,0.3-2,0.7c-0.9,0.4-1.6,1-2.5,1.4
		c-0.3,0.2-0.7,0.2-1.3,0.3c0.7,1.2,1.5,2.5,2.3,3.9c3.4-2,6.7-3.9,10.1-5.9c0.2,0.3,0.4,0.5,0.7,0.8c2.8-1.6,5.6-3.3,8.4-4.9
		c0.3,0.5,0.5,0.9,0.8,1.4c-2.9,1.7-5.6,3.3-8.4,5c0.1,0.3,0.2,0.6,0.4,1c-3.4,2-6.9,4.1-10.4,6.1c1,1.8,2,3.5,3,5.2
		c-0.3,0.2-0.5,0.4-0.8,0.6c1,1.7,1.9,3.3,2.9,4.9c0.3,0.4,0.5,0.8-0.3,1C-169.8,252.1-170.9,250.3-172,248.4z"/>
	<path id="XMLID_87_" class="st2" d="M-183.1,268.2c-0.6,0.4-1.1,0.6-1.7,1c-2.8-4.9-5.6-9.7-8.5-14.6c0.6-0.3,1.1-0.6,1.7-1
		C-188.8,258.5-186,263.4-183.1,268.2z"/>
	<path id="XMLID_86_" class="st1" d="M-209.9,238.8c0.6-0.4,1.1-0.7,1.7-1c2.8,4.9,5.7,9.7,8.5,14.6c-0.6,0.3-1.1,0.6-1.7,1
		C-204.3,248.5-207.1,243.8-209.9,238.8z"/>
	<path id="XMLID_85_" class="st1" d="M-204.4,235.5c0.6-0.3,1.1-0.6,1.7-1c2.8,4.9,5.7,9.7,8.5,14.6c-0.6,0.3-1.1,0.6-1.7,1
		C-198.8,245.3-201.6,240.4-204.4,235.5z"/>
	<path id="XMLID_83_" class="st2" d="M-196,256.2c0.6-0.3,1.1-0.6,1.7-1c2.8,4.9,5.7,9.7,8.5,14.6c-0.6,0.3-1.1,0.6-1.7,1
		C-190.4,266-193.2,261.1-196,256.2z"/>
	<path id="XMLID_82_" class="st2" d="M-180.3,266.6c-0.6,0.4-1.1,0.6-1.7,1c-2.8-4.8-5.7-9.7-8.5-14.6c0.6-0.3,1-0.6,1.7-1
		C-186,256.9-183.2,261.8-180.3,266.6z"/>
	<path id="XMLID_81_" class="st2" d="M-188.6,271.5c-0.6,0.3-1.1,0.6-1.7,1c-2.8-4.9-5.7-9.7-8.5-14.6c0.6-0.4,1.1-0.6,1.7-1
		C-194.3,261.8-191.5,266.6-188.6,271.5z"/>
	<path id="XMLID_75_" class="st1" d="M-207.2,237.1c0.7-0.4,1.1-0.6,1.7-1c2.8,4.9,5.7,9.7,8.5,14.6c-0.6,0.3-1,0.6-1.7,1
		C-201.5,246.9-204.3,242-207.2,237.1z"/>
	<path id="XMLID_74_" class="st1" d="M-191.5,247.5c-0.5,0.3-1,0.6-1.7,1c-2.8-4.9-5.7-9.7-8.5-14.6c0.6-0.3,1-0.6,1.7-1
		C-197.2,237.8-194.3,242.6-191.5,247.5z"/>
	<polygon id="XMLID_64_" class="st0" points="-175.6,280.6 -173.7,284.4 -169.6,284.9 -172.6,287.9 -171.9,291.9 -175.6,289.9 
		-179.2,291.9 -178.5,287.9 -181.5,284.9 -177.4,284.4 	"/>
	<polygon id="XMLID_63_" class="st0" points="-147.1,270.2 -145.2,273.9 -141.1,274.5 -144.1,277.4 -143.4,281.5 -147.1,279.6 
		-150.7,281.5 -150,277.4 -153,274.5 -148.9,273.9 	"/>
	<polygon id="XMLID_62_" class="st0" points="-204.9,270.2 -203.1,273.9 -199,274.5 -202,277.4 -201.3,281.5 -204.9,279.6 
		-208.6,281.5 -207.9,277.4 -210.9,274.5 -206.8,273.9 	"/>
	<g class="st4">
		<path class="st0" d="M-210.1,205.3h3.8c0.7,0,1.3,0.4,1.3,1.3c0,0.9-0.6,1.3-1.3,1.3h-10.2c-0.7,0-1.3-0.4-1.3-1.3
			c0-0.9,0.6-1.3,1.3-1.3h3.8v-15h-3.8c-0.7,0-1.3-0.4-1.3-1.3s0.6-1.3,1.3-1.3h10.2c0.7,0,1.3,0.4,1.3,1.3s-0.6,1.3-1.3,1.3h-3.8
			V205.3z"/>
		<path class="st0" d="M-187.2,202.8c0.5,0.7,0.9,1.3,0.9,2.2c0,1.9-1.5,2.9-3.3,2.9h-5.7c-1,0-1.8-0.2-2.6-0.8
			c-0.7-0.6-1.2-1.5-1.2-2.4c0-0.8,0.5-1.6,1.4-1.6c0.8,0,1.2,0.6,1.2,1.3c0,0.8,0.4,0.9,1.1,0.9h5.6c0.2,0,0.9,0.1,0.9-0.3
			c0-0.2-0.4-0.6-0.5-0.8l-8.9-11.4c-0.5-0.7-0.9-1.2-0.9-2.1c0-1,0.5-1.9,1.4-2.5c0.7-0.5,1.3-0.5,2.2-0.5h5.5c1,0,1.8,0.2,2.6,0.9
			c0.7,0.6,1.2,1.6,1.2,2.5c0,0.8-0.4,1.5-1.3,1.5c-0.8,0-1.2-0.5-1.2-1.2c0-0.9-0.4-1-1.2-1h-5.5c-0.3,0-0.9-0.1-0.9,0.4
			c0,0.2,0.3,0.5,0.4,0.7L-187.2,202.8z"/>
		<path class="st0" d="M-168.6,202.8c0.5,0.7,0.9,1.3,0.9,2.2c0,1.9-1.5,2.9-3.3,2.9h-5.7c-1,0-1.8-0.2-2.6-0.8
			c-0.7-0.6-1.2-1.5-1.2-2.4c0-0.8,0.5-1.6,1.4-1.6c0.8,0,1.2,0.6,1.2,1.3c0,0.8,0.4,0.9,1.1,0.9h5.6c0.2,0,0.9,0.1,0.9-0.3
			c0-0.2-0.4-0.6-0.5-0.8l-8.9-11.4c-0.5-0.7-0.9-1.2-0.9-2.1c0-1,0.5-1.9,1.4-2.5c0.7-0.5,1.3-0.5,2.2-0.5h5.5c1,0,1.8,0.2,2.6,0.9
			c0.7,0.6,1.2,1.6,1.2,2.5c0,0.8-0.4,1.5-1.3,1.5c-0.8,0-1.2-0.5-1.2-1.2c0-0.9-0.4-1-1.2-1h-5.5c-0.3,0-0.9-0.1-0.9,0.4
			c0,0.2,0.3,0.5,0.4,0.7L-168.6,202.8z"/>
		<path class="st0" d="M-152.4,196.2c1.1,0,1.6,0.4,1.6,1.6s-0.5,1.6-1.6,1.6h-6.1c-1.1,0-1.6-0.4-1.6-1.6s0.5-1.6,1.6-1.6H-152.4z"
			/>
		<path class="st0" d="M-140.6,190.3v0.9c0,0.8-0.4,1.3-1.3,1.3s-1.3-0.5-1.3-1.3v-3.5h12.8v3.5c0,0.8-0.4,1.3-1.3,1.3
			s-1.3-0.5-1.3-1.3v-0.9h-2.5v16.3c0,0.8-0.4,1.3-1.3,1.3c-0.9,0-1.3-0.5-1.3-1.3v-16.3H-140.6z"/>
	</g>
	<path class="st0" d="M-150,251.9c-1.6,0-3,1.1-3.4,2.5c-0.2,0-0.4,0-0.7,0c-2.5-0.2-6.2-0.4-10.6-0.7c-4.4-0.3-9.5-0.8-15-1.4
		c-2.7-0.3-5.5-0.7-8.4-1.1c-2.9-0.5-5.7-1-8.6-1.6c-1.4-0.3-2.8-0.7-4.2-1.1c-1.3-0.4-2.7-0.9-4-1.5c-0.6-0.3-1.2-0.6-1.8-1
		c-0.5-0.4-1.1-0.9-1.3-1.4c0-0.1-0.1-0.2-0.1-0.4v-0.1V244v-0.2c0-0.2,0-0.3,0-0.5s0-0.4,0.1-0.5c0.2-0.6,0.6-1.2,1.1-1.6
		c1-0.9,2.2-1.5,3.4-2c1.2-0.4,2.5-0.8,3.7-1.1c2.5-0.6,4.8-0.9,7-1.2c2.2-0.2,4.2-0.4,6-0.5s3.3-0.2,4.6-0.2c2.5,0,4,0,4,0
		s-1.5-0.1-4.1-0.3c-1.2,0-2.8,0-4.6,0.1s-3.8,0.2-6,0.4c-2.2,0.3-4.6,0.6-7.1,1.1c-1.3,0.3-2.5,0.6-3.8,1.1c-1.2,0.5-2.5,1-3.6,2
		c-0.5,0.5-1,1.1-1.3,1.8c-0.1,0.2-0.2,0.4-0.2,0.6c-0.1,0.2-0.1,0.4-0.1,0.6v0.3v0.1v0.1v0.1c0,0.2,0.1,0.4,0.2,0.6
		c0.1,0.2,0.2,0.3,0.3,0.5c0.2,0.2,0.3,0.4,0.4,0.5c0.3,0.3,0.6,0.6,0.9,0.8c0.6,0.4,1.2,0.8,1.9,1.1c1.3,0.6,2.7,1.2,4.1,1.6
		c1.4,0.5,2.9,0.8,4.3,1.2c2.8,0.7,5.7,1.3,8.6,1.8c2.8,0.5,5.7,0.9,8.4,1.3c5.5,0.7,10.6,1.3,15,1.7c4.4,0.4,8,0.7,10.6,0.9
		c0.3,0,0.5,0,0.8,0.1c0.4,1.6,1.8,2.8,3.5,2.8c2,0,3.6-1.6,3.6-3.6C-146.4,253.5-148,251.9-150,251.9z"/>
	<path id="XMLID_2_" class="st2" d="M-172,248.4c-0.3,0.1-0.6,0.2-0.9,0.4c-1-1.7-2-3.4-3.1-5.2c-3.6,2.1-7.1,4.2-10.6,6.3
		c-0.2-0.3-0.4-0.5-0.6-0.8c-2.8,1.6-5.6,3.3-8.4,5c-0.3-0.5-0.5-0.9-0.8-1.4c2.8-1.7,5.6-3.3,8.4-5c-0.1-0.3-0.2-0.6-0.3-1
		c3.4-2,6.8-4,10.3-6.1c-0.8-1.4-1.6-2.7-2.4-4.1c-0.8,1.2-0.4,1.6-5.6,3.2c-0.3-0.6-0.7-1.1-0.9-1.6c0.6-1.9,2.3-2.4,3.7-3.3
		c0.3-0.2,0.7-0.1,1.1-0.1c0.2,0,0.5-0.1,0.6-0.2c0.9-0.5,2-0.8,2.5-1.6c1.2-1.7,3.1-2.3,4.7-3.4c0.2-0.1,0.3-0.4,0.4-0.7
		c0.6-1.2,1.9-1.8,3.1-1.4c1.2,0.4,2,1.6,1.8,2.8c-0.2,1.3-1.3,2.2-2.6,2.3c-0.7,0-1.4,0.3-2,0.7c-0.9,0.4-1.6,1-2.5,1.4
		c-0.3,0.2-0.7,0.2-1.3,0.3c0.7,1.2,1.5,2.5,2.3,3.9c3.4-2,6.7-3.9,10.1-5.9c0.2,0.3,0.4,0.5,0.7,0.8c2.8-1.6,5.6-3.3,8.4-4.9
		c0.3,0.5,0.5,0.9,0.8,1.4c-2.9,1.7-5.6,3.3-8.4,5c0.1,0.3,0.2,0.6,0.4,1c-3.4,2-6.9,4.1-10.4,6.1c1,1.8,2,3.5,3,5.2
		c-0.3,0.2-0.5,0.4-0.8,0.6c1,1.7,1.9,3.3,2.9,4.9c0.3,0.4,0.5,0.8-0.3,1C-169.8,252.1-170.9,250.3-172,248.4z"/>
	<path id="XMLID_55_" class="st2" d="M-199.7,252.4c-0.5,0.3-1,0.6-1.7,1c-2.8-4.9-5.7-9.7-8.5-14.6c0.6-0.3,1-0.6,1.7-1
		C-205.4,242.8-202.6,247.5-199.7,252.4z"/>
	<path id="XMLID_57_" class="st2" d="M-197,250.8c-0.5,0.3-1,0.6-1.7,1c-2.8-4.9-5.7-9.7-8.5-14.6c0.6-0.3,1-0.6,1.7-1
		C-202.7,241-199.8,245.9-197,250.8z"/>
	<path id="XMLID_58_" class="st2" d="M-194.2,249.1c-0.5,0.3-1,0.6-1.7,1c-2.8-4.9-5.7-9.7-8.5-14.6c0.6-0.3,1-0.6,1.7-1
		C-199.9,239.4-197.1,244.2-194.2,249.1z"/>
	<path id="XMLID_59_" class="st2" d="M-191.5,247.5c-0.5,0.3-1,0.6-1.7,1c-2.8-4.9-5.7-9.7-8.5-14.6c0.6-0.3,1-0.6,1.7-1
		C-197.2,237.8-194.3,242.6-191.5,247.5z"/>
	<path id="XMLID_89_" class="st2" d="M-168.4,214.3c0.6-0.3,1.1-0.6,1.7-1c2.8,4.9,5.6,9.7,8.5,14.6c-0.6,0.3-1.1,0.6-1.7,1
		C-162.7,224-165.5,219.2-168.4,214.3z"/>
	<path id="XMLID_88_" class="st2" d="M-157.3,233.3c0.6-0.4,1.1-0.7,1.7-1c2.8,4.9,5.7,9.7,8.5,14.6c-0.5,0.3-1,0.6-1.7,1
		C-151.6,243.1-154.4,238.3-157.3,233.3z"/>
	<path id="XMLID_84_" class="st2" d="M-143.2,244.8c-2.8-4.9-5.7-9.7-8.5-14.6c0.6-0.3,1.1-0.6,1.7-1c2.8,4.9,5.7,9.7,8.5,14.6
		C-142.1,244.1-142.7,244.4-143.2,244.8z"/>
	<path id="XMLID_80_" class="st2" d="M-161.2,210c2.9,4.9,5.7,9.7,8.5,14.6c-0.6,0.4-1.1,0.6-1.7,1c-2.8-4.8-5.6-9.7-8.5-14.6
		C-162.4,210.8-161.9,210.4-161.2,210z"/>
	<path id="XMLID_79_" class="st2" d="M-164,211.6c2.8,4.9,5.7,9.7,8.5,14.6c-0.5,0.3-1,0.6-1.7,1c-2.8-4.9-5.6-9.7-8.5-14.6
		C-165.1,212.3-164.6,212-164,211.6z"/>
	<path id="XMLID_78_" class="st2" d="M-171.1,215.9c0.6-0.3,1-0.6,1.7-1c2.8,4.9,5.7,9.7,8.5,14.6c-0.6,0.3-1.1,0.6-1.7,1
		C-165.5,225.6-168.3,220.8-171.1,215.9z"/>
	<path id="XMLID_77_" class="st2" d="M-149.8,248.6c-0.6,0.3-1,0.6-1.7,1c-2.9-4.9-5.7-9.7-8.5-14.6c0.5-0.3,1-0.6,1.7-1
		C-155.5,238.8-152.7,243.8-149.8,248.6z"/>
	<path id="XMLID_76_" class="st2" d="M-144.3,245.3c-0.6,0.3-1.1,0.6-1.7,1c-2.8-4.9-5.7-9.7-8.5-14.6c0.6-0.3,1.1-0.6,1.7-1
		C-150,235.6-147.2,240.4-144.3,245.3z"/>
	
		<linearGradient id="XMLID_6_" gradientUnits="userSpaceOnUse" x1="-205.8286" y1="243.25" x2="-145.6286" y2="243.25" gradientTransform="matrix(1 0 0 -1 0 484)">
		<stop  offset="0" style="stop-color:#FFFFFF;stop-opacity:0"/>
		<stop  offset="0.5" style="stop-color:#FFFFFF;stop-opacity:0.35"/>
		<stop  offset="1" style="stop-color:#FFFFFF;stop-opacity:0"/>
	</linearGradient>
	<path id="XMLID_91_" class="st5" d="M-149.5,181.5H-202c-2.1,0-3.9,3.6-3.9,7.4v57.3c0,0.2,0,0.3,0,0.5
		c0.4,29.5,13.7,53.2,30.1,53.2s29.7-23.7,30.1-53.2c0-0.1,0-0.3,0-0.5v-57.3C-145.7,185.1-147.4,181.5-149.5,181.5z"/>
</g>
<g id="Layer_2">
</g>
</svg>
