<?xml version="1.0" encoding="utf-8"?>
<!-- Generator: Adobe Illustrator 19.0.0, SVG Export Plug-In . SVG Version: 6.00 Build 0)  -->
<!DOCTYPE svg PUBLIC "-//W3C//DTD SVG 1.1//EN" "http://www.w3.org/Graphics/SVG/1.1/DTD/svg11.dtd">
<svg version="1.1" id="Layer_1" xmlns="http://www.w3.org/2000/svg" xmlns:xlink="http://www.w3.org/1999/xlink" x="0px" y="0px"
	 viewBox="0 0 144 144" style="enable-background:new 0 0 144 144;" xml:space="preserve">
<style type="text/css">
	.st0{fill:#01193B;}
	.st1{fill:#E32E3D;}
	.st2{fill:#FFFFFF;}
	.st3{font-family:'OCRAStd';}
	.st4{font-size:25.9123px;}
</style>
<g id="XMLID_53_">
	<path id="XMLID_92_" class="st0" d="M124.3,9H19c-4.3,0-8,3.9-8,8.1v63.5c0,0.2,0.1,0.3,0.2,0.5c0.7,32.7,27.5,59,60.4,59
		s59.6-26.3,60.4-59c0-0.2,0-0.3,0-0.5V17.1C132,12.9,128.6,9,124.3,9z"/>
	<path id="XMLID_91_" class="st1" d="M119.1,15H24c-3.8,0-7,3.6-7,7.4v57.3c0,0.2,0,0.3,0,0.5c0.7,29.5,24.8,53.2,54.5,53.2
		s53.8-23.7,54.5-53.2c0-0.1,0-0.3,0-0.5V22.4C126,18.6,122.9,15,119.1,15z"/>
	<g id="XMLID_65_">
		<path id="XMLID_90_" class="st0" d="M75.3,82.8c-0.3,0.1-0.6,0.2-0.9,0.4c-1-1.7-2-3.4-3.1-5.2c-3.6,2.1-7.1,4.2-10.6,6.3
			c-0.2-0.3-0.4-0.5-0.6-0.8c-2.8,1.6-5.6,3.3-8.4,5c-0.3-0.5-0.5-0.9-0.8-1.4c2.8-1.7,5.6-3.3,8.4-5c-0.1-0.3-0.2-0.6-0.3-1
			c3.4-2,6.8-4,10.3-6.1c-0.8-1.4-1.6-2.7-2.4-4.1c-0.8,1.2-0.4,1.6-5.6,3.2c-0.3-0.6-0.7-1.1-0.9-1.6c0.6-1.9,2.3-2.4,3.7-3.3
			c0.3-0.2,0.7-0.1,1.1-0.1c0.2,0,0.5-0.1,0.6-0.2c0.9-0.5,2-0.8,2.5-1.6c1.2-1.7,3.1-2.3,4.7-3.4c0.2-0.1,0.3-0.4,0.4-0.7
			c0.6-1.2,1.9-1.8,3.1-1.4c1.2,0.4,2,1.6,1.8,2.8c-0.2,1.3-1.3,2.2-2.6,2.3c-0.7,0-1.4,0.3-2,0.7c-0.9,0.4-1.6,1-2.5,1.4
			c-0.3,0.2-0.7,0.2-1.3,0.3c0.7,1.2,1.5,2.5,2.3,3.9c3.4-2,6.7-3.9,10.1-5.9c0.2,0.3,0.4,0.5,0.7,0.8c2.8-1.6,5.6-3.3,8.4-4.9
			c0.3,0.5,0.5,0.9,0.8,1.4c-2.9,1.7-5.6,3.3-8.4,5c0.1,0.3,0.2,0.6,0.4,1c-3.4,2-6.9,4.1-10.4,6.1c1,1.8,2,3.5,3,5.2
			c-0.3,0.2-0.5,0.4-0.8,0.6c1,1.7,1.9,3.3,2.9,4.9c0.3,0.4,0.5,0.8-0.3,1C77.5,86.5,76.4,84.7,75.3,82.8z"/>
		<path id="XMLID_89_" class="st0" d="M78.9,48.7c0.6-0.3,1.1-0.6,1.7-1c2.8,4.9,5.6,9.7,8.5,14.6c-0.6,0.3-1.1,0.6-1.7,1
			C84.6,58.4,81.8,53.6,78.9,48.7z"/>
		<path id="XMLID_88_" class="st0" d="M90,67.7c0.6-0.4,1.1-0.7,1.7-1c2.8,4.9,5.7,9.7,8.5,14.6c-0.5,0.3-1,0.6-1.7,1
			C95.7,77.5,92.9,72.7,90,67.7z"/>
		<path id="XMLID_87_" class="st0" d="M64.2,102.6c-0.6,0.4-1.1,0.6-1.7,1c-2.8-4.9-5.6-9.7-8.5-14.6c0.6-0.3,1.1-0.6,1.7-1
			C58.5,92.9,61.3,97.7,64.2,102.6z"/>
		<path id="XMLID_86_" class="st0" d="M37.4,73.2c0.6-0.4,1.1-0.7,1.7-1c2.8,4.9,5.7,9.7,8.5,14.6c-0.6,0.3-1.1,0.6-1.7,1
			C43,82.9,40.2,78.1,37.4,73.2z"/>
		<path id="XMLID_85_" class="st0" d="M42.9,69.9c0.6-0.3,1.1-0.6,1.7-1c2.8,4.9,5.7,9.7,8.5,14.6c-0.6,0.3-1.1,0.6-1.7,1
			C48.5,79.7,45.7,74.8,42.9,69.9z"/>
		<path id="XMLID_84_" class="st0" d="M104.1,79.1c-2.8-4.9-5.7-9.7-8.5-14.6c0.6-0.3,1.1-0.6,1.7-1c2.8,4.9,5.7,9.7,8.5,14.6
			C105.2,78.5,104.6,78.8,104.1,79.1z"/>
		<path id="XMLID_83_" class="st0" d="M51.3,90.6c0.6-0.3,1.1-0.6,1.7-1c2.8,4.9,5.7,9.7,8.5,14.6c-0.6,0.3-1.1,0.6-1.7,1
			C56.9,100.4,54.1,95.5,51.3,90.6z"/>
		<path id="XMLID_82_" class="st0" d="M67,101c-0.6,0.4-1.1,0.6-1.7,1c-2.8-4.8-5.7-9.7-8.5-14.6c0.6-0.3,1-0.6,1.7-1
			C61.3,91.2,64.1,96.1,67,101z"/>
		<path id="XMLID_81_" class="st0" d="M58.7,105.9c-0.6,0.3-1.1,0.6-1.7,1c-2.8-4.9-5.7-9.7-8.5-14.6c0.6-0.4,1.1-0.6,1.7-1
			C53,96.1,55.8,101,58.7,105.9z"/>
		<path id="XMLID_80_" class="st0" d="M86.1,44.4c2.9,4.9,5.7,9.7,8.5,14.6c-0.6,0.4-1.1,0.6-1.7,1c-2.8-4.8-5.6-9.7-8.5-14.6
			C84.9,45.1,85.4,44.8,86.1,44.4z"/>
		<path id="XMLID_79_" class="st0" d="M83.3,46c2.8,4.9,5.7,9.7,8.5,14.6c-0.5,0.3-1,0.6-1.7,1c-2.8-4.9-5.6-9.7-8.5-14.6
			C82.2,46.7,82.7,46.4,83.3,46z"/>
		<path id="XMLID_78_" class="st0" d="M76.2,50.3c0.6-0.3,1-0.6,1.7-1c2.8,4.9,5.7,9.7,8.5,14.6c-0.6,0.3-1.1,0.6-1.7,1
			C81.8,60,79,55.2,76.2,50.3z"/>
		<path id="XMLID_77_" class="st0" d="M97.5,83c-0.6,0.3-1,0.6-1.7,1c-2.9-4.9-5.7-9.7-8.5-14.6c0.5-0.3,1-0.6,1.7-1
			C91.8,73.2,94.6,78.1,97.5,83z"/>
		<path id="XMLID_76_" class="st0" d="M103,79.7c-0.6,0.3-1.1,0.6-1.7,1c-2.8-4.9-5.7-9.7-8.5-14.6c0.6-0.3,1.1-0.6,1.7-1
			C97.3,70,100.1,74.8,103,79.7z"/>
		<path id="XMLID_75_" class="st0" d="M40.1,71.5c0.7-0.4,1.1-0.6,1.7-1c2.8,4.9,5.7,9.7,8.5,14.6c-0.6,0.3-1,0.6-1.7,1
			C45.8,81.3,43,76.4,40.1,71.5z"/>
		<path id="XMLID_74_" class="st0" d="M55.8,81.9c-0.5,0.3-1,0.6-1.7,1c-2.8-4.9-5.7-9.7-8.5-14.6c0.6-0.3,1-0.6,1.7-1
			C50.1,72.2,53,77,55.8,81.9z"/>
		<path id="XMLID_73_" class="st0" d="M72.7,93.3c-0.5-0.8-0.9-1.6-1.5-2.5c1.9-1.1,3.8-2.2,5.8-3.4c0.5,0.8,0.9,1.6,1.5,2.5
			C76.6,91,74.7,92.1,72.7,93.3z"/>
		<path id="XMLID_72_" class="st0" d="M84.9,82.8c0.5,0.9,1,1.6,1.5,2.5c-1.9,1.1-3.8,2.3-5.8,3.4c-0.5-0.9-1-1.6-1.5-2.5
			C81,85.1,82.9,83.9,84.9,82.8z"/>
		<path id="XMLID_71_" class="st0" d="M71.2,87.4c-0.5,0.3-0.8,0.4-1.2,0.7c-1.1-2-2.3-3.9-3.5-5.9c0.4-0.2,0.7-0.5,1.2-0.7
			C68.9,83.4,70,85.4,71.2,87.4z"/>
		<path id="XMLID_70_" class="st0" d="M82.9,80.5c-0.5,0.3-0.8,0.5-1.2,0.7c-1.2-2-2.3-3.9-3.5-5.9c0.4-0.2,0.7-0.5,1.2-0.7
			C80.6,76.5,81.7,78.4,82.9,80.5z"/>
		<path id="XMLID_69_" class="st0" d="M64.5,83.3c0.4-0.3,0.8-0.5,1.2-0.7c1.2,2,2.3,3.9,3.5,5.9c-0.4,0.2-0.7,0.5-1.2,0.7
			C66.8,87.3,65.7,85.4,64.5,83.3z"/>
		<path id="XMLID_68_" class="st0" d="M80.2,74c0.5-0.3,0.8-0.5,1.2-0.7c1.2,2,2.3,3.9,3.5,6c-0.4,0.2-0.8,0.4-1.2,0.7
			C82.6,78,81.4,76.1,80.2,74z"/>
		<path id="XMLID_67_" class="st0" d="M80.9,81.7c-0.4,0.3-0.8,0.5-1.2,0.7c-1.2-2-2.3-3.9-3.5-6c0.4-0.2,0.8-0.5,1.2-0.7
			C78.6,77.7,79.7,79.7,80.9,81.7z"/>
		<path id="XMLID_66_" class="st0" d="M68.6,80.9c0.4-0.3,0.8-0.5,1.2-0.7c1.2,2,2.3,3.9,3.5,5.9c-0.4,0.2-0.7,0.5-1.2,0.7
			C70.9,84.9,69.8,83,68.6,80.9z"/>
	</g>
	<polygon id="XMLID_64_" class="st2" points="71.7,115 73.6,118.7 77.7,119.3 74.7,122.2 75.4,126.3 71.7,124.3 68.1,126.3 
		68.8,122.2 65.8,119.3 69.9,118.7 	"/>
	<polygon id="XMLID_63_" class="st2" points="100.2,104.6 102.1,108.3 106.2,108.9 103.2,111.8 103.9,115.9 100.2,114 96.6,115.9 
		97.3,111.8 94.3,108.9 98.4,108.3 	"/>
	<polygon id="XMLID_62_" class="st2" points="42.4,104.6 44.2,108.3 48.3,108.9 45.3,111.8 46,115.9 42.4,114 38.7,115.9 
		39.4,111.8 36.4,108.9 40.5,108.3 	"/>
	<text id="XMLID_61_" transform="matrix(1 0 0 1 26.601 42.2093)" class="st2 st3 st4">ISS-T</text>
	<path id="XMLID_60_" class="st2" d="M69.1,70.6c0,0-1.5,0-4,0c-1.3,0-2.8,0.1-4.6,0.2c-1.8,0.1-3.8,0.3-6,0.5
		c-2.2,0.3-4.5,0.6-7,1.2c-1.2,0.3-2.5,0.7-3.7,1.1c-1.2,0.5-2.4,1.1-3.4,2c-0.5,0.4-0.9,1-1.1,1.6c-0.1,0.1-0.1,0.3-0.1,0.5
		c0,0.2,0,0.3,0,0.5l0,0.2c0,0,0,0,0,0l0,0l0,0.1l0,0.1c0,0.2,0.1,0.3,0.1,0.4c0.2,0.5,0.8,1,1.3,1.4c0.6,0.4,1.2,0.7,1.8,1
		c1.3,0.6,2.7,1.1,4,1.5c1.4,0.4,2.8,0.8,4.2,1.1c2.9,0.6,5.7,1.1,8.6,1.6c2.9,0.4,5.7,0.8,8.4,1.1c5.5,0.6,10.6,1.1,15,1.4
		c4.4,0.3,8.1,0.5,10.6,0.7c1.3,0.1,2.3,0.1,3,0.1c0.7,0,1,0,1,0l-0.1,2c0,0-0.4,0-1.1-0.1c-0.7,0-1.7-0.1-3-0.2
		c-2.6-0.2-6.2-0.5-10.6-0.9c-4.4-0.4-9.5-1-15-1.7c-2.7-0.4-5.6-0.8-8.4-1.3c-2.9-0.5-5.8-1.1-8.6-1.8c-1.4-0.4-2.9-0.7-4.3-1.2
		c-1.4-0.4-2.8-1-4.1-1.6c-0.7-0.3-1.3-0.7-1.9-1.1c-0.3-0.2-0.6-0.5-0.9-0.8c-0.1-0.1-0.2-0.3-0.4-0.5c-0.1-0.2-0.2-0.3-0.3-0.5
		c-0.1-0.2-0.2-0.4-0.2-0.6l0-0.1l0-0.1l0,0c0,0,0-0.1,0-0.1l0-0.3c0-0.2,0-0.4,0.1-0.6c0-0.2,0.1-0.4,0.2-0.6
		c0.3-0.7,0.8-1.3,1.3-1.8c1.1-1,2.4-1.5,3.6-2c1.3-0.5,2.5-0.8,3.8-1.1c2.5-0.5,4.9-0.8,7.1-1.1c2.2-0.2,4.2-0.3,6-0.4
		c1.8-0.1,3.4-0.1,4.6-0.1C67.6,70.5,69.1,70.6,69.1,70.6z"/>
	<path id="XMLID_55_" class="st0" d="M47.6,86.8c-0.5,0.3-1,0.6-1.7,1c-2.8-4.9-5.7-9.7-8.5-14.6c0.6-0.3,1-0.6,1.7-1
		C41.9,77.1,44.7,81.9,47.6,86.8z"/>
	<path id="XMLID_57_" class="st0" d="M50.3,85.1c-0.5,0.3-1,0.6-1.7,1c-2.8-4.9-5.7-9.7-8.5-14.6c0.6-0.3,1-0.6,1.7-1
		C44.6,75.4,47.5,80.3,50.3,85.1z"/>
	<path id="XMLID_58_" class="st0" d="M53.1,83.5c-0.5,0.3-1,0.6-1.7,1c-2.8-4.9-5.7-9.7-8.5-14.6c0.6-0.3,1-0.6,1.7-1
		C47.4,73.8,50.2,78.6,53.1,83.5z"/>
	<path id="XMLID_59_" class="st0" d="M55.8,81.9c-0.5,0.3-1,0.6-1.7,1c-2.8-4.9-5.7-9.7-8.5-14.6c0.6-0.3,1-0.6,1.7-1
		C50.1,72.2,53,77,55.8,81.9z"/>
	<circle id="XMLID_54_" class="st2" cx="97.3" cy="89.9" r="3.6"/>
	<path id="XMLID_56_" class="st0" d="M75.3,82.9c-0.3,0.1-0.6,0.2-0.9,0.4c-1-1.7-2-3.4-3.1-5.2c-3.6,2.1-7.1,4.2-10.6,6.3
		c-0.2-0.3-0.4-0.5-0.6-0.8c-2.8,1.6-5.6,3.3-8.4,5c-0.3-0.5-0.5-0.9-0.8-1.4c2.8-1.7,5.6-3.3,8.4-5c-0.1-0.3-0.2-0.6-0.3-1
		c3.4-2,6.8-4,10.3-6.1c-0.8-1.4-1.6-2.7-2.4-4.1c-0.8,1.2-0.4,1.6-5.6,3.2c-0.3-0.6-0.7-1.1-0.9-1.6c0.6-1.9,2.3-2.4,3.7-3.3
		c0.3-0.2,0.7-0.1,1.1-0.1c0.2,0,0.5-0.1,0.6-0.2c0.9-0.5,2-0.8,2.5-1.6c1.2-1.7,3.1-2.3,4.7-3.4c0.2-0.1,0.3-0.4,0.4-0.7
		c0.6-1.2,1.9-1.8,3.1-1.4c1.2,0.4,2,1.6,1.8,2.8c-0.2,1.3-1.3,2.2-2.6,2.3c-0.7,0-1.4,0.3-2,0.7c-0.9,0.4-1.6,1-2.5,1.4
		c-0.3,0.2-0.7,0.2-1.3,0.3c0.7,1.2,1.5,2.5,2.3,3.9c3.4-2,6.7-3.9,10.1-5.9c0.2,0.3,0.4,0.5,0.7,0.8c2.8-1.6,5.6-3.3,8.4-4.9
		c0.3,0.5,0.5,0.9,0.8,1.4c-2.9,1.7-5.6,3.3-8.4,5c0.1,0.3,0.2,0.6,0.4,1c-3.4,2-6.9,4.1-10.4,6.1c1,1.8,2,3.5,3,5.2
		c-0.3,0.2-0.5,0.4-0.8,0.6c1,1.7,1.9,3.3,2.9,4.9c0.3,0.4,0.5,0.8-0.3,1C77.5,86.6,76.4,84.8,75.3,82.9z"/>
</g>
</svg>
